<svg width="501" height="501" viewBox="0 0 501 501" fill="none" xmlns="http://www.w3.org/2000/svg">
<mask id="mask0" mask-type="alpha" maskUnits="userSpaceOnUse" x="0" y="0" width="501" height="501">
<path d="M0 250.218C0 112.027 112.027 0 250.218 0C388.41 0 500.437 112.027 500.437 250.218C500.437 388.41 388.41 500.437 250.218 500.437C112.027 500.437 0 388.41 0 250.218Z" fill="white"/>
</mask>
<g mask="url(#mask0)">
<path d="M59.4966 205.658C92.6637 118.935 157.334 51.7512 239.728 14.3173" stroke="#D78431" stroke-width="8.87828" stroke-miterlimit="1.22077" stroke-linecap="round" stroke-dasharray="61.44 43.73"/>
<path d="M65.5195 293.637L59.2864 223.469C55.4776 157.142 80.8069 94.8963 122.697 53.8658M436.188 219.139L444.78 293.637C447.589 342.55 434.552 389.243 410.712 426.845" stroke="#5F175A" stroke-width="22.1957" stroke-linecap="round"/>
<path d="M417.363 697.434C623.297 698.983 791.496 533.296 793.045 327.362C794.595 121.428 628.908 -46.7713 422.973 -48.3206C254.973 -49.5846 117.334 50.1499 71.4862 198.744" stroke="#D8B84F" stroke-width="8.87828" stroke-miterlimit="1.22077" stroke-linecap="round" stroke-dasharray="13.34 43.73"/>
<path d="M419.618 317.768C387.009 389.755 332.394 448.968 264.994 487.594" stroke="#D78431" stroke-width="8.87828" stroke-miterlimit="1.22077" stroke-linecap="round" stroke-dasharray="102.1 77.68"/>
<path d="M429.002 307.988C403.615 379.092 357.253 440.23 297.367 483.95" stroke="#D8B84F" stroke-width="8.87828" stroke-miterlimit="16" stroke-linecap="round" stroke-dasharray="65.6 43.73"/>
<path d="M473.573 676.588C678.892 652.992 826.146 466.794 802.475 260.703C778.803 54.6115 593.17 -93.3301 387.851 -69.7341C220.353 -50.4847 95.4644 66.04 67.9895 220.209" stroke="#EDDDA9" stroke-width="8.87828" stroke-miterlimit="1.22077" stroke-linecap="round" stroke-dasharray="48.83 106.54"/>
<path d="M432.353 270.444C412.563 353.272 365.146 426.412 299.428 478.249" stroke="#EDDDA9" stroke-width="8.87828" stroke-miterlimit="1.22077" stroke-linecap="round" stroke-dasharray="48.1 43.73"/>
<g filter="url(#filter0_ddddi)">
<circle cx="251.392" cy="247.423" r="138.153" fill="#0C0750"/>
</g>
<path opacity="0.29" d="M406.223 247.993C406.223 235.934 404.839 224.197 402.222 212.934C396.745 189.368 385.867 167.874 370.963 149.828M251.963 402.254C241.974 402.254 232.207 401.304 222.747 399.491M97.7029 247.993C97.7029 266.023 100.796 283.33 106.481 299.413M251.963 93.7332C236.526 93.7332 221.618 96.0008 207.555 100.221M285.854 97.4678C303.557 101.436 320.111 108.448 334.936 117.926M378.105 336.81C368.448 350.501 356.618 362.549 343.117 372.454M191.194 389.822C172.854 381.954 156.347 370.633 142.491 356.677M149.123 133.013C157.668 125.364 167.071 118.654 177.17 113.045" stroke="#FDF2DB" stroke-width="14.2394" stroke-linecap="round"/>
<path d="M198.058 69.3183C185.184 72.5536 173.026 77.1794 161.705 82.9953C138.016 95.1641 117.989 112.543 102.723 133.294" stroke="#C63406" stroke-width="11.0979" stroke-linecap="round"/>
<path d="M210.524 72.8789C197.502 75.4528 185.124 79.4522 173.521 84.6827C149.242 95.6267 128.354 111.961 112.048 131.906" stroke="#FB7171" stroke-width="11.0979" stroke-linecap="round"/>
<path opacity="0.1" d="M209.537 59.7522C194.88 63.0097 180.989 67.8618 168.007 74.0854C140.845 87.1074 117.66 106.134 99.7527 129.122M438.689 205.568C441.387 217.708 442.871 229.836 443.222 241.823M292.873 434.72C314.785 429.85 334.985 421.416 352.996 410.163M63.7204 288.904C67.8903 307.666 74.6731 325.172 83.601 341.125M59.1051 246.706C59.1465 224.117 63.1973 202.104 70.7112 181.526M325.077 69.9357C344.325 77.975 362.164 89.0983 377.849 102.832M439.995 282.783C435.386 307.198 426.085 330.318 412.866 350.929M139.238 403.284C127.634 394.964 116.94 385.348 107.395 374.589" stroke="#FDF2DB" stroke-width="17.7285" stroke-linecap="round"/>
<path d="M306.053 467.953C315.231 467.953 322.671 460.513 322.671 451.335C322.671 442.157 315.231 434.716 306.053 434.716C296.874 434.716 289.434 442.157 289.434 451.335C289.434 460.513 296.874 467.953 306.053 467.953Z" fill="#86ECFC"/>
<path d="M271.128 454.795C275.959 454.795 279.874 450.88 279.874 446.049C279.874 441.219 275.959 437.303 271.128 437.303C266.298 437.303 262.382 441.219 262.382 446.049C262.382 450.88 266.298 454.795 271.128 454.795Z" fill="#86ECFC"/>
<path d="M371.82 377.838C376.11 377.838 379.588 374.36 379.588 370.07C379.588 365.779 376.11 362.301 371.82 362.301C367.529 362.301 364.051 365.779 364.051 370.07C364.051 374.36 367.529 377.838 371.82 377.838Z" fill="#86ECFC"/>
<path d="M180.116 346.086C165.966 346.086 154.486 332.07 154.486 314.984C154.486 311.513 152.083 308.577 149.28 308.577C146.344 308.577 144.074 311.38 144.074 314.984C144.074 332.204 132.595 346.086 118.445 346.086C115.508 346.086 113.239 348.889 113.239 352.494C113.239 355.964 115.642 358.901 118.445 358.901C132.595 358.901 144.074 372.917 144.074 390.003C144.074 393.474 146.477 396.41 149.28 396.41C152.217 396.41 154.486 393.607 154.486 390.003C154.486 372.783 165.966 358.901 180.116 358.901C183.052 358.901 185.321 356.098 185.321 352.494C185.455 348.889 183.052 346.086 180.116 346.086Z" fill="#FCF3B5"/>
<path d="M200.309 90.495C193.158 90.495 187.356 83.4112 187.356 74.7758C187.356 73.0217 186.142 71.5375 184.725 71.5375C183.241 71.5375 182.094 72.9543 182.094 74.7758C182.094 83.4787 176.292 90.495 169.141 90.495C167.657 90.495 166.51 91.9117 166.51 93.7333C166.51 95.4873 167.724 96.9715 169.141 96.9715C176.292 96.9715 182.094 104.055 182.094 112.691C182.094 114.445 183.308 115.929 184.725 115.929C186.209 115.929 187.356 114.512 187.356 112.691C187.356 103.988 193.158 96.9715 200.309 96.9715C201.794 96.9715 202.94 95.5548 202.94 93.7333C203.008 91.9117 201.794 90.495 200.309 90.495Z" fill="#FCF3B5"/>
<path d="M399.158 184.556C390.575 184.556 383.611 176.054 383.611 165.689C383.611 163.583 382.153 161.802 380.453 161.802C378.671 161.802 377.295 163.502 377.295 165.689C377.295 176.135 370.331 184.556 361.747 184.556C359.966 184.556 358.589 186.257 358.589 188.443C358.589 190.549 360.047 192.33 361.747 192.33C370.331 192.33 377.295 200.832 377.295 211.197C377.295 213.303 378.752 215.084 380.453 215.084C382.234 215.084 383.611 213.384 383.611 211.197C383.611 200.751 390.575 192.33 399.158 192.33C400.94 192.33 402.316 190.629 402.316 188.443C402.397 186.257 400.94 184.556 399.158 184.556Z" fill="#FCF3B5"/>
<circle cx="250.854" cy="246.884" r="75.4654" fill="black"/>
<path d="M411.609 117.102C416.836 117.102 421.074 112.865 421.074 107.638C421.074 102.41 416.836 98.1729 411.609 98.1729C406.382 98.1729 402.144 102.41 402.144 107.638C402.144 112.865 406.382 117.102 411.609 117.102Z" fill="#EFB15E"/>
<path d="M382.844 122.577C385.867 122.577 388.318 120.126 388.318 117.102C388.318 114.079 385.867 111.628 382.844 111.628C379.82 111.628 377.369 114.079 377.369 117.102C377.369 120.126 379.82 122.577 382.844 122.577Z" fill="#EE9A40"/>
<path d="M400.196 153.662C406.755 153.662 412.073 148.345 412.073 141.785C412.073 135.225 406.755 129.908 400.196 129.908C393.636 129.908 388.318 135.225 388.318 141.785C388.318 148.345 393.636 153.662 400.196 153.662Z" fill="#F3AB68"/>
<path d="M341.097 247.077C341.097 258.552 338.941 269.524 335.012 279.609C329.681 293.292 321.086 305.342 310.185 314.805C301.666 322.199 291.738 328.013 280.857 331.789C271.645 334.987 261.75 336.724 251.45 336.724C239.206 336.724 227.535 334.269 216.903 329.825C206.988 325.681 197.976 319.807 190.245 312.58C180.65 303.611 173.028 292.558 168.098 280.144C164.036 269.912 161.802 258.755 161.802 247.077C161.802 234.272 164.487 222.095 169.324 211.077C172.388 204.097 176.316 197.582 180.972 191.667C190.306 179.811 202.567 170.368 216.666 164.427C227.362 159.921 239.115 157.429 251.45 157.429C259.647 157.429 267.587 158.53 275.131 160.59C283.602 162.904 291.572 166.429 298.845 170.968C306.464 175.723 313.317 181.59 319.178 188.342C326.572 196.861 332.386 206.789 336.162 217.669C339.36 226.881 341.097 236.776 341.097 247.077Z" stroke="white" stroke-opacity="0.11" stroke-width="7.47061" stroke-linecap="round"/>
</g>
<defs>
<filter id="filter0_ddddi" x="50.3179" y="46.3493" width="402.148" height="402.148" filterUnits="userSpaceOnUse" color-interpolation-filters="sRGB">
<feFlood flood-opacity="0" result="BackgroundImageFix"/>
<feColorMatrix in="SourceAlpha" type="matrix" values="0 0 0 0 0 0 0 0 0 0 0 0 0 0 0 0 0 0 127 0"/>
<feMorphology radius="62.9211" operator="dilate" in="SourceAlpha" result="effect1_dropShadow"/>
<feOffset/>
<feColorMatrix type="matrix" values="0 0 0 0 0.588235 0 0 0 0 0.141176 0 0 0 0 0.560784 0 0 0 1 0"/>
<feBlend mode="normal" in2="BackgroundImageFix" result="effect1_dropShadow"/>
<feColorMatrix in="SourceAlpha" type="matrix" values="0 0 0 0 0 0 0 0 0 0 0 0 0 0 0 0 0 0 127 0"/>
<feMorphology radius="43.7712" operator="dilate" in="SourceAlpha" result="effect2_dropShadow"/>
<feOffset/>
<feColorMatrix type="matrix" values="0 0 0 0 0.882353 0 0 0 0 0.345098 0 0 0 0 0.388235 0 0 0 1 0"/>
<feBlend mode="normal" in2="effect1_dropShadow" result="effect2_dropShadow"/>
<feColorMatrix in="SourceAlpha" type="matrix" values="0 0 0 0 0 0 0 0 0 0 0 0 0 0 0 0 0 0 127 0"/>
<feMorphology radius="24.6213" operator="dilate" in="SourceAlpha" result="effect3_dropShadow"/>
<feOffset/>
<feColorMatrix type="matrix" values="0 0 0 0 0.937255 0 0 0 0 0.721569 0 0 0 0 0.254902 0 0 0 1 0"/>
<feBlend mode="normal" in2="effect2_dropShadow" result="effect3_dropShadow"/>
<feColorMatrix in="SourceAlpha" type="matrix" values="0 0 0 0 0 0 0 0 0 0 0 0 0 0 0 0 0 0 127 0"/>
<feMorphology radius="7.49582" operator="dilate" in="SourceAlpha" result="effect4_dropShadow"/>
<feOffset/>
<feColorMatrix type="matrix" values="0 0 0 0 0.980392 0 0 0 0 0.933333 0 0 0 0 0.745098 0 0 0 1 0"/>
<feBlend mode="normal" in2="effect3_dropShadow" result="effect4_dropShadow"/>
<feBlend mode="normal" in="SourceGraphic" in2="effect4_dropShadow" result="shape"/>
<feColorMatrix in="SourceAlpha" type="matrix" values="0 0 0 0 0 0 0 0 0 0 0 0 0 0 0 0 0 0 127 0" result="hardAlpha"/>
<feMorphology radius="4.28381" operator="erode" in="SourceAlpha" result="effect5_innerShadow"/>
<feOffset/>
<feComposite in2="hardAlpha" operator="arithmetic" k2="-1" k3="1"/>
<feColorMatrix type="matrix" values="0 0 0 0 0.419608 0 0 0 0 0.12549 0 0 0 0 0.717647 0 0 0 1 0"/>
<feBlend mode="normal" in2="shape" result="effect5_innerShadow"/>
</filter>
</defs>
</svg>
